# xmcd CD database file
#
# Track frame offsets:
#	183
#	17965
#	34805
#	49483
#	69690
#	85740
#	101533
#	118888
#	138940
#	154940
#	168580
#	189088
#	203153
#	226228
#
# Disc length: 3208 seconds
#
# Revision: 6
# Processed by: cddbd v1.5.2PL0 Copyright (c) Steve Scherf et al.
# Submitted via: CDex 1.51
#
DISCID=bf0c860e
DTITLE=Bonnie Tyler - Here Am I
DYEAR=1992
DGENRE=Pop
TTITLE0=Lost In France
TTITLE1=Living For The City
TTITLE2=Goodbye To The Island
TTITLE3=A Whiter Shade Of Pale
TTITLE4=The World Starts Tonight
TTITLE5=It's A Heartache
TTITLE6=Here Am I
TTITLE7=Louisiana Rain
TTITLE8=If You Ever Need Me Again
TTITLE9=Bye Bye Now My Sweet Love
TTITLE10=Wild Love
TTITLE11=Heaven
TTITLE12=I'm Just A Woman
TTITLE13=Love Tangle
EXTD=YEAR: 1992
EXTT0=
EXTT1=
EXTT2=
EXTT3=
EXTT4=
EXTT5=
EXTT6=
EXTT7=
EXTT8=
EXTT9=
EXTT10=
EXTT11=
EXTT12=
EXTT13=
PLAYORDER=
